<svg xmlns="http://www.w3.org/2000/svg" xmlns:xlink="http://www.w3.org/1999/xlink" xmlns:svgjs="http://svgjs.dev/svgjs" version="1.1" width="1000" height="196" viewBox="0 0 1000 196"><g transform="matrix(1,0,0,1,-0.6060606060606233,-0.2905543389936298)"><svg xmlns="http://www.w3.org/2000/svg" xmlns:xlink="http://www.w3.org/1999/xlink" viewBox="0 0 396 78" data-background-color="#c9efc7" preserveAspectRatio="xMidYMid meet" height="196" width="1000"><g id="tight-bounds" transform="matrix(1,0,0,1,0.2400000000000091,0.11562876755868956)"><svg viewBox="0 0 395.52 77.76874246488259" height="77.76874246488259" width="395.52"><g><svg viewBox="0 0 395.52 77.76874246488259" height="77.76874246488259" width="395.52"><g transform="matrix(1,0,0,1,0,48.06420277051062)"><svg viewBox="0 0 395.52 29.70453969437197" height="29.70453969437197" width="395.52"><g id="textblocktransform"><svg viewBox="0 0 395.52 29.70453969437197" height="29.70453969437197" width="395.52" id="textblock"><g><svg viewBox="0 0 395.52 29.70453969437197" height="29.70453969437197" width="395.52"><g transform="matrix(1,0,0,1,0,0)"><svg width="395.52" viewBox="0.8 -39.6 536.57 40.300000000000004" height="29.70453969437197" data-palette-color="#2ecc40"><path d="M19.7 0.7Q11.85 0.7 7.58-2.75 3.3-6.2 3.3-13.95L3.3-13.95 3.3-30.7 0.8-30.7 0.8-38.9 19.3-38.9 19.3-30.7 17.3-30.7 17.3-11.4Q17.3-9.75 18.03-8.97 18.75-8.2 20.2-8.2L20.2-8.2Q21.65-8.2 22.38-8.97 23.1-9.75 23.1-11.4L23.1-11.4 23.1-30.7 21.1-30.7 21.1-38.9 38.25-38.9 38.25-30.7 35.75-30.7 35.75-13.95Q35.75-6.2 31.6-2.75 27.45 0.7 19.7 0.7L19.7 0.7ZM40.05 0L40.05-8.2 42.55-8.2 42.55-30.7 40.05-30.7 40.05-38.9 63-38.9Q69.45-38.9 72.85-36.25 76.25-33.6 76.25-27.65L76.25-27.65Q76.25-24.3 74.9-21.85 73.55-19.4 71.05-18.45L71.05-18.45 71.1-17.95Q75.9-17.2 75.9-12.05L75.9-12.05 75.9-8.2 78.25-8.2 78.25 0 62.4 0 62.4-11.75Q62.4-13.7 61.82-14.7 61.25-15.7 60.02-16.05 58.8-16.4 56.55-16.4L56.55-16.4 56.55-8.2 59.85-8.2 59.85 0 40.05 0ZM56.55-22.5L59.25-22.5Q60.7-22.5 61.42-23.28 62.15-24.05 62.15-25.7L62.15-25.7 62.15-27.5Q62.15-29.15 61.42-29.93 60.7-30.7 59.25-30.7L59.25-30.7 56.55-30.7 56.55-22.5ZM80.05 0L80.05-8.2 82.55-8.2 82.55-30.7 80.05-30.7 80.05-38.9 103-38.9Q109.25-38.9 112.75-36.35 116.25-33.8 116.25-29.05L116.25-29.05Q116.25-26.1 114.85-24.08 113.45-22.05 111.57-21.03 109.7-20 107.95-19.65L107.95-19.65 107.95-19.15Q111.5-18.8 114.35-16.9 117.2-15 117.2-10.1L117.2-10.1Q117.2-4.85 113.25-2.43 109.3 0 103 0L103 0 80.05 0ZM96.55-22.5L99.25-22.5Q100.7-22.5 101.42-23.28 102.15-24.05 102.15-25.7L102.15-25.7 102.15-27.5Q102.15-29.15 101.42-29.93 100.7-30.7 99.25-30.7L99.25-30.7 96.55-30.7 96.55-22.5ZM96.55-8.2L99.6-8.2Q101.05-8.2 101.77-8.97 102.5-9.75 102.5-11.4L102.5-11.4 102.5-13.6Q102.5-15.25 101.77-16.03 101.05-16.8 99.6-16.8L99.6-16.8 96.55-16.8 96.55-8.2ZM147.04-38.9L155.49-8.2 157.49-8.2 157.49 0 137.89 0 137.89-8.2 140.89-8.2 140.09-12.2 133.29-12.2 132.49-8.2 135.49-8.2 135.49 0 118.39 0 118.39-8.2 120.39-8.2 128.84-38.9 147.04-38.9ZM136.44-27.45L134.39-17.5 138.99-17.5 136.94-27.45 136.44-27.45ZM187.89-30.7L187.89-38.9 204.29-38.9 204.29-30.7 201.79-30.7 201.79 0 187.74 0 173.09-22.55 173.09-8.2 175.49-8.2 175.49 0 159.09 0 159.09-8.2 161.59-8.2 161.59-30.7 159.09-30.7 159.09-38.9 177.14-38.9 190.29-18.85 190.29-30.7 187.89-30.7ZM258.89-19.95L258.89-12.5 256.39-12.5 256.39-2.5Q254.19-1.25 249.96-0.28 245.74 0.7 240.84 0.7L240.84 0.7Q231.49 0.7 226.19-4.23 220.89-9.15 220.89-19.45L220.89-19.45Q220.89-30 226.16-34.8 231.44-39.6 241.24-39.6L241.24-39.6Q245.99-39.6 250.14-38.6 254.29-37.6 256.39-36.35L256.39-36.35 256.39-24.4 243.89-24.4 243.89-26.75Q243.89-28.85 243.01-29.78 242.14-30.7 240.24-30.7L240.24-30.7Q238.34-30.7 237.46-29.78 236.59-28.85 236.59-26.75L236.59-26.75 236.59-12.15Q236.59-10.05 237.46-9.13 238.34-8.2 240.24-8.2L240.24-8.2Q242.14-8.2 243.01-9.13 243.89-10.05 243.89-12.15L243.89-12.15 243.89-12.5 241.19-12.5 241.19-19.95 258.89-19.95ZM288.53-38.9L296.98-8.2 298.98-8.2 298.98 0 279.38 0 279.38-8.2 282.38-8.2 281.58-12.2 274.78-12.2 273.98-8.2 276.98-8.2 276.98 0 259.88 0 259.88-8.2 261.88-8.2 270.33-38.9 288.53-38.9ZM277.93-27.45L275.88-17.5 280.48-17.5 278.43-27.45 277.93-27.45ZM300.58 0L300.58-8.2 303.08-8.2 303.08-30.7 300.58-30.7 300.58-38.9 323.53-38.9Q329.98-38.9 333.38-36.25 336.78-33.6 336.78-27.65L336.78-27.65Q336.78-24.3 335.43-21.85 334.08-19.4 331.58-18.45L331.58-18.45 331.63-17.95Q336.43-17.2 336.43-12.05L336.43-12.05 336.43-8.2 338.78-8.2 338.78 0 322.93 0 322.93-11.75Q322.93-13.7 322.36-14.7 321.78-15.7 320.56-16.05 319.33-16.4 317.08-16.4L317.08-16.4 317.08-8.2 320.38-8.2 320.38 0 300.58 0ZM317.08-22.5L319.78-22.5Q321.23-22.5 321.96-23.28 322.68-24.05 322.68-25.7L322.68-25.7 322.68-27.5Q322.68-29.15 321.96-29.93 321.23-30.7 319.78-30.7L319.78-30.7 317.08-30.7 317.08-22.5ZM340.58 0L340.58-8.2 343.08-8.2 343.08-30.65 340.58-30.65 340.58-38.9 360.88-38.9Q369.23-38.9 374.15-34.33 379.08-29.75 379.08-19.45L379.08-19.45Q379.08-9.15 374.15-4.58 369.23 0 360.88 0L360.88 0 340.58 0ZM357.08-8.2L359.98-8.2Q361.68-8.2 362.53-9.1 363.38-10 363.38-11.9L363.38-11.9 363.38-27Q363.38-30.7 359.98-30.7L359.98-30.7 357.08-30.7 357.08-8.2ZM414.53 0L380.78 0 380.78-8.2 383.28-8.2 383.28-30.7 380.78-30.7 380.78-38.9 414.53-38.9 414.53-23.8 403.33-23.8 403.33-30.7 397.28-30.7 397.28-22.8 401.68-22.8 401.68-17.1 397.28-17.1 397.28-8.2 403.33-8.2 403.33-16.1 414.53-16.1 414.53 0ZM445.22-30.7L445.22-38.9 461.62-38.9 461.62-30.7 459.12-30.7 459.12 0 445.07 0 430.42-22.55 430.42-8.2 432.82-8.2 432.82 0 416.42 0 416.42-8.2 418.92-8.2 418.92-30.7 416.42-30.7 416.42-38.9 434.47-38.9 447.62-18.85 447.62-30.7 445.22-30.7ZM497.27 0L463.52 0 463.52-8.2 466.02-8.2 466.02-30.7 463.52-30.7 463.52-38.9 497.27-38.9 497.27-23.8 486.07-23.8 486.07-30.7 480.02-30.7 480.02-22.8 484.42-22.8 484.42-17.1 480.02-17.1 480.02-8.2 486.07-8.2 486.07-16.1 497.27-16.1 497.27 0ZM499.17 0L499.17-8.2 501.67-8.2 501.67-30.7 499.17-30.7 499.17-38.9 522.12-38.9Q528.57-38.9 531.97-36.25 535.37-33.6 535.37-27.65L535.37-27.65Q535.37-24.3 534.02-21.85 532.67-19.4 530.17-18.45L530.17-18.45 530.22-17.95Q535.02-17.2 535.02-12.05L535.02-12.05 535.02-8.2 537.37-8.2 537.37 0 521.52 0 521.52-11.75Q521.52-13.7 520.94-14.7 520.37-15.7 519.14-16.05 517.92-16.4 515.67-16.4L515.67-16.4 515.67-8.2 518.97-8.2 518.97 0 499.17 0ZM515.67-22.5L518.37-22.5Q519.82-22.5 520.54-23.28 521.27-24.05 521.27-25.7L521.27-25.7 521.27-27.5Q521.27-29.15 520.54-29.93 519.82-30.7 518.37-30.7L518.37-30.7 515.67-30.7 515.67-22.5Z" opacity="1" transform="matrix(1,0,0,1,0,0)" fill="#2ecc40" class="undefined-text-0" data-fill-palette-color="primary" id="text-0"/></svg></g></svg></g></svg></g></svg></g><g transform="matrix(1,0,0,1,177.40815257324158,0)"><svg viewBox="0 0 40.7036948535168 41.05167385762206" height="41.05167385762206" width="40.7036948535168"><g><svg xmlns="http://www.w3.org/2000/svg" xmlns:xlink="http://www.w3.org/1999/xlink" version="1.1" x="8" y="0" viewBox="19.660000000000007 0.026 60.153000000000006 99.96000000000002" enable-background="new 0 0 100 100" xml:space="preserve" height="41.05167385762206" width="24.7036948535168" class="icon-icon-0" data-fill-palette-color="accent" id="icon-0"><g fill="#2ecc40" data-fill-palette-color="accent"><path d="M79.808 42.533c0-0.992-0.812-1.803-1.804-1.803L52.3 40.704l-0.979 0.005c-0.914-4.928-0.914-14.727 1.429-18.24C64.499 19.509 65.64 8.348 65.64 8.348c-9.322-0.665-12.751 2.529-14.839 8.322C49.737 1.391 34.815 0.026 34.815 0.026 31.42 11.811 37.212 19.267 46.389 22.5c0 0 0.783 0.191 1.823 0.325-0.745 2.154-1.188 4.829-1.37 7.606-2.588-3.229-8.004-3.648-9.857-2.221 0 0 1.818 6.953 9.762 5.869 0.027 2.374 0.228 4.678 0.57 6.65l-1.561 0.009-24.291 0.005c-0.992 0.001-1.805 0.813-1.805 1.806l0.004 11.201c0 0.992 0.812 1.804 1.805 1.804l56.54-0.017c0.992 0 1.804-0.812 1.804-1.804L79.808 42.533z" fill="#2ecc40" data-fill-palette-color="accent"/><path d="M72.778 60.233l-46.08 0.015c-0.992 0-1.649 0.796-1.456 1.77l7.082 36.192c0.19 0.975 1.157 1.772 2.149 1.772l31.472 0.004c0.993-0.001 1.942-0.8 2.111-1.778l6.22-36.195C74.445 61.034 73.771 60.233 72.778 60.233z" fill="#2ecc40" data-fill-palette-color="accent"/></g></svg></g></svg></g><g><rect width="177.40815257324158" height="2.678786044723429" y="37.37288781289864" x="218.11184742675837" fill="#2ecc40" data-fill-palette-color="accent"/><rect width="177.40815257324158" height="2.678786044723429" y="37.37288781289864" x="0" fill="#2ecc40" data-fill-palette-color="accent"/><rect width="177.40815257324158" height="2.678786044723429" y="32.01531572345178" x="218.11184742675837" fill="#2ecc40" data-fill-palette-color="accent"/><rect width="177.40815257324158" height="2.678786044723429" y="32.01531572345178" x="0" fill="#2ecc40" data-fill-palette-color="accent"/></g></svg></g><defs/></svg><rect width="395.52" height="77.76874246488259" fill="none" stroke="none" visibility="hidden"/></g></svg></g></svg>