<svg viewBox="0 0 512 512" class="fl-svg" style="transform: scale(0.5);"><svg xmlns="http://www.w3.org/2000/svg" width="512" height="512" viewBox="0 0 512 512" style="max-width: 100%; max-height: 100%;" data-id="$$debug" visibility="visible" data-bbox="96.13413420769962 140.83264143881698 319.7317315846008 230.33471712236607"><g data-icon="" transform="matrix(0.23414729535579681, 0, 0, 0.23414729535579681, 96.1341323852539, 140.8326416015625)"><svg height="512pt" viewBox="0 0 512 512" width="512pt" xmlns="http://www.w3.org/2000/svg"><path d="m116.566406 211.058594h278.671875v293.144531h-278.671875zm0 0" fill="#189e5e"></path><path d="m395.238281 504.203125h-206.304687v-216.722656c0-15.21875 12.335937-27.554688 27.554687-27.554688h178.75zm0 0" fill="#22b573"></path><path d="m504.203125 122.621094v24.089844c0 3.425781-.191406 6.808593-.585937 10.132812-5.019532 43.925781-42.3125 78.039062-87.585938 78.039062h-320.269531c-45.261719 0-82.554688-34.113281-87.574219-78.039062-.394531-3.324219-.585938-6.707031-.585938-10.132812v-24.089844zm0 0" fill="#e22814"></path><path d="m504.207031 122.621094v24.089844c0 48.695312-39.476562 88.171874-88.171875 88.171874h-178.949218c-48.6875 0-88.164063-39.476562-88.164063-88.171874v-24.089844zm0 0" fill="#f7583e"></path><path d="m382.355469 122.621094h-252.921875c0-49.296875 70.667968-115.019532 126.460937-115.019532 12.140625 0 24.984375 3.109376 37.640625 8.480469 45.554688 19.339844 88.820313 67.964844 88.820313 106.539063zm0 0" fill="#e22814"></path><path d="m382.355469 122.621094h-177.640625c0-38.574219 43.265625-87.199219 88.820312-106.539063 45.554688 19.339844 88.820313 67.964844 88.820313 106.539063zm0 0" fill="#f7583e"></path><path d="m504.203125 122.621094v24.089844c0 3.425781-.191406 6.808593-.585937 10.132812h-495.429688c-.394531-3.324219-.585938-6.707031-.585938-10.132812v-24.089844zm0 0" fill="#fcc854"></path><path d="m149.519531 156.84375h-141.328125c-.394531-3.324219-.585937-6.707031-.585937-10.132812v-24.089844h141.328125v24.089844c0 3.425781.191406 6.808593.585937 10.132812zm0 0" fill="#edac29"></path><path d="m395.238281 475.015625h40.671875c37.761719 0 68.488282-30.730469 68.488282-68.492187v-105.652344c0-19.589844-15.878907-35.472656-35.472657-35.472656-19.589843 0-35.46875 15.882812-35.46875 35.472656v103.199218h-38.21875" fill="#22b573"></path><path d="m479.851562 267.109375c-14.25 4.601563-24.554687 17.980469-24.554687 33.761719v94.421875c0 4.847656-3.933594 8.777343-8.78125 8.777343h-13.058594v-102.546874c0-19.550782 15.992188-36.164063 35.542969-36.125 3.785156.007812 7.429688.605468 10.851562 1.710937zm0 0" fill="#189e5e"></path><path d="m216.421875 302.023438c0 12.472656-10.113281 22.585937-22.585937 22.585937-12.476563 0-22.585938-10.113281-22.585938-22.585937 0-12.476563 10.109375-22.585938 22.585938-22.585938 12.472656 0 22.585937 10.109375 22.585937 22.585938zm0 0" fill="#1e1613"></path><path d="m340.554688 302.023438c0 12.472656-10.109376 22.585937-22.585938 22.585937-12.472656 0-22.585938-10.113281-22.585938-22.585937 0-12.476563 10.113282-22.585938 22.585938-22.585938 12.476562 0 22.585938 10.109375 22.585938 22.585938zm0 0" fill="#1e1613"></path><g fill="#fff"><path d="m207.808594 298.472656c0 5.253906-4.257813 9.511719-9.511719 9.511719-5.25 0-9.511719-4.257813-9.511719-9.511719 0-5.25 4.261719-9.511718 9.511719-9.511718 5.253906 0 9.511719 4.261718 9.511719 9.511718zm0 0"></path><path d="m332.5 298.472656c0 5.253906-4.261719 9.511719-9.511719 9.511719-5.253906 0-9.511719-4.257813-9.511719-9.511719 0-5.25 4.257813-9.511718 9.511719-9.511718 5.25 0 9.511719 4.261718 9.511719 9.511718zm0 0"></path><path d="m193.636719 355.425781c0 34.386719 27.878906 62.265625 62.265625 62.265625 34.386718 0 62.265625-27.878906 62.265625-62.265625zm0 0"></path></g><path d="m512 406.523438v-105.652344c0-14.105469-6.8125-26.648438-17.324219-34.507813l8.785157-17.566406c1.878906-3.753906.355468-8.320313-3.398438-10.195313-3.757812-1.878906-8.324219-.355468-10.199219 3.398438l-8.78125 17.554688c-1.914062-.5625-3.882812-1.003907-5.898437-1.296876l-2.78125-13.117187c-.875-4.105469-4.910156-6.722656-9.015625-5.855469-4.105469.871094-6.730469 4.90625-5.859375 9.011719l2.226562 10.492187c-19.355468 4.21875-33.898437 21.480469-33.898437 42.082032v95.601562h-23.015625v-112.207031l18.121094-9.8125c3.691406-1.996094 5.0625-6.609375 3.0625-10.300781s-6.609376-5.066406-10.304688-3.066406l-10.878906 5.890624v-24.496093h13.195312c49.109375 0 89.695313-37.15625 95.140625-84.832031.003907-.015626.003907-.027344.007813-.042969.40625-3.578125.621094-7.210938.621094-10.894531v-24.089844c0-4.199219-3.402344-7.601563-7.601563-7.601563h-72.15625c-4.199219 0-7.601563 3.402344-7.601563 7.601563 0 4.195312 3.402344 7.597656 7.601563 7.597656h64.554687v16.492188c0 .851562-.039062 1.691406-.0625 2.535156h-481.273437c-.027344-.84375-.0625-1.683594-.0625-2.535156v-16.492188h386.433594c4.199219 0 7.601562-3.402344 7.601562-7.597656 0-4.199219-3.402343-7.601563-7.601562-7.601563h-12.15625c-2.910157-23.722656-19.003907-50.8125-44.292969-74-28.015625-25.683593-61.394531-41.019531-89.289062-41.019531-27.894532 0-61.277344 15.335938-89.292969 41.019531-25.289063 23.1875-41.378907 50.277344-44.292969 74h-114.710938c-4.199218 0-7.601562 3.402344-7.601562 7.601563v24.089844c0 52.808593 42.964844 95.769531 95.769531 95.769531h13.195313v68.808593l-15.207032-9.03125c-3.605468-2.140624-8.269531-.953124-10.414062 2.652344-2.144531 3.609375-.953125 8.273438 2.65625 10.417969l22.964844 13.640625v11.363281l-17.496094-3.742187c-4.101562-.878906-8.144531 1.734375-9.023438 5.839844-.878906 4.105468 1.738282 8.144531 5.84375 9.023437l20.675782 4.425781v28.824219c0 4.199219 3.402344 7.601563 7.601562 7.601563 4.199219 0 7.601563-3.402344 7.601563-7.601563v-142.222656h263.46875v254.121093h-263.46875v-81.492187c0-4.199219-3.402344-7.601563-7.601563-7.601563-4.199218 0-7.601562 3.402344-7.601562 7.601563v38.210937l-16.238282-6.5625c-3.898437-1.570312-8.324218.3125-9.894531 4.203126-1.574219 3.890624.308594 8.320312 4.199219 9.894531l21.933594 8.859375v34.488281c0 4.195313 3.402344 7.601563 7.601562 7.601563h278.675782c4.199218 0 7.597656-3.40625 7.597656-7.601563v-21.589844h33.070312c14.304688 0 27.699219-3.972656 39.144532-10.867187l17.617187 6.609375c.882813.332031 1.78125.488281 2.671875.488281 3.074219 0 5.972656-1.882812 7.117188-4.933594 1.472656-3.929687-.519532-8.3125-4.449219-9.785156l-8.847657-3.320312c14.078126-13.816407 22.835938-33.039063 22.835938-54.28125zm-335.121094-354.296876c25.285156-23.183593 54.824219-37.023437 79.015625-37.023437 24.191407 0 53.734375 13.839844 79.019531 37.023437 21.691407 19.886719 36.121094 43.226563 39.214844 62.792969h-236.464844c3.09375-19.566406 17.523438-42.90625 39.214844-62.792969zm-81.109375 175.054688c-38.332031 0-70.472656-26.917969-78.578125-62.835938h477.417969c-8.101563 35.917969-40.246094 62.835938-78.578125 62.835938zm307.070313 240.132812v-55.742187h30.617187c4.199219 0 7.601563-3.402344 7.601563-7.601563v-103.199218c0-15.363282 12.492187-27.859375 27.847656-27.871094h.011719.023437c15.359375.007812 27.855469 12.507812 27.855469 27.871094v105.652344c0 33.574218-27.316406 60.890624-60.890625 60.890624zm0 0"></path><path d="m186.035156 355.425781c0 38.523438 31.34375 69.867188 69.867188 69.867188 38.523437 0 69.867187-31.34375 69.867187-69.867188 0-4.199219-3.402343-7.601562-7.601562-7.601562h-124.53125c-4.199219 0-7.601563 3.402343-7.601563 7.601562zm124.003906 7.601563c-3.710937 26.554687-26.574218 47.0625-54.136718 47.0625s-50.425782-20.507813-54.140625-47.0625zm0 0"></path><path d="m327.515625 427.75c1.484375 1.484375 3.429687 2.226562 5.375 2.226562s3.890625-.742187 5.375-2.226562l13.867187-13.867188c2.972657-2.96875 2.972657-7.78125.003907-10.75s-7.78125-2.96875-10.75 0l-13.867188 13.867188c-2.972656 2.96875-2.972656 7.78125-.003906 10.75zm0 0"></path><path d="m455.625 423.605469-13.867188 13.867187c-2.96875 2.96875-2.96875 7.78125.003907 10.75 1.480469 1.484375 3.429687 2.226563 5.371093 2.226563 1.945313 0 3.890626-.742188 5.378907-2.226563l13.867187-13.871094c2.96875-2.96875 2.96875-7.78125-.003906-10.75-2.964844-2.964843-7.777344-2.964843-10.75.003907zm0 0"></path><path d="m163.332031 421.082031c-3.632812 2.101563-4.875 6.753907-2.769531 10.386719l14.53125 25.09375c1.40625 2.433594 3.957031 3.792969 6.582031 3.792969 1.292969 0 2.601563-.332031 3.800781-1.023438 3.632813-2.105469 4.875-6.753906 2.769532-10.386719l-14.527344-25.09375c-2.101562-3.636718-6.753906-4.875-10.386719-2.769531zm0 0"></path><path d="m239.875 281.148438 15.1875-15.1875c2.96875-2.96875 2.96875-7.78125 0-10.746094-2.96875-2.96875-7.78125-2.96875-10.75 0l-15.1875 15.1875c-2.96875 2.96875-2.96875 7.78125 0 10.746094 1.484375 1.484374 3.429688 2.226562 5.375 2.226562s3.890625-.742188 5.375-2.226562zm0 0"></path><path d="m283.417969 450.347656-7.925781 23.773438c-1.324219 3.984375.828124 8.289062 4.808593 9.613281.796875.265625 1.609375.394531 2.40625.394531 3.179688 0 6.144531-2.015625 7.207031-5.199218l7.925782-23.773438c1.328125-3.984375-.824219-8.289062-4.808594-9.613281-3.980469-1.332031-8.285156.824219-9.613281 4.804687zm0 0"></path><path d="m193.835938 332.210938c-16.644532 0-30.1875-13.542969-30.1875-30.1875 0-16.644532 13.542968-30.1875 30.1875-30.1875 16.644531 0 30.1875 13.542968 30.1875 30.1875 0 16.644531-13.542969 30.1875-30.1875 30.1875zm0-45.171876c-8.265626 0-14.984376 6.71875-14.984376 14.984376 0 8.265624 6.71875 14.984374 14.984376 14.984374 8.261718 0 14.984374-6.722656 14.984374-14.984374 0-8.261719-6.722656-14.984376-14.984374-14.984376zm0 0"></path><path d="m317.96875 332.210938c-16.644531 0-30.1875-13.542969-30.1875-30.1875 0-16.644532 13.542969-30.1875 30.1875-30.1875s30.1875 13.542968 30.1875 30.1875c0 16.644531-13.542969 30.1875-30.1875 30.1875zm0-45.171876c-8.261719 0-14.984375 6.71875-14.984375 14.984376 0 8.265624 6.722656 14.984374 14.984375 14.984374s14.984375-6.722656 14.984375-14.984374c0-8.261719-6.71875-14.984376-14.984375-14.984376zm0 0"></path></svg></g><path text-anchor="middle" offset="0.5" fill="rgba(255, 107, 29, 1)" space="preserve" font-scale="contain" font-size="48" font-family="Oxanium" text="urban" font-style="normal" font-weight="800" data-fl-textpath="" transform="matrix(1.1693401336669922, 0, 0, 1.1693401336669922, 341.89105224609375, 293.29052734375)" d="M-63.266-8.06L-63.266-8.06L-63.266-25.54L-55.245999999999995-25.54L-55.245999999999995-7.58Q-55.245999999999995-6.96 -54.626-6.96L-54.626-6.96L-48.916-6.96L-48.916-25.54L-40.896-25.54L-40.896 0L-55.196 0Q-63.266 0 -63.266-8.06ZM-26.541999999999998 0L-34.562 0L-34.562-22.08Q-32.732-25.54 -27.451999999999998-25.54L-27.451999999999998-25.54L-22.081999999999997-25.54L-18.721999999999998-23.04L-18.721999999999998-18.58L-25.052-18.58Q-26.211999999999996-18.58 -26.541999999999998-18.05L-26.541999999999998-18.05L-26.541999999999998 0ZM 0.09800000000000253 0L-14.211999999999998 0L-14.211999999999998-35.52L-6.191999999999998-35.52L-6.191999999999998-25.54L 0.09800000000000253-25.54Q 8.158000000000001-25.54  8.158000000000001-17.47L 8.158000000000001-17.47L 8.158000000000001-8.06Q 8.158000000000001 0  0.09800000000000253 0L 0.09800000000000253 0ZM-6.191999999999998-18.58L-6.191999999999998-6.96L-0.4819999999999993-6.96Q 0.14800000000000324-6.96  0.14800000000000324-7.58L 0.14800000000000324-7.58L 0.14800000000000324-17.95Q 0.14800000000000324-18.58 -0.4819999999999993-18.58L-0.4819999999999993-18.58L-6.191999999999998-18.58ZM 34.56 0L 21.020000000000003 0Q 12.960000000000004 0  12.960000000000004-7.82Q 12.960000000000004-15.65  21.020000000000003-15.65L 21.020000000000003-15.65L 26.540000000000006-15.65L 26.540000000000006-17.95Q 26.540000000000006-18.58  25.920000000000005-18.58L 25.920000000000005-18.58L 15.790000000000004-18.58L 15.790000000000004-23.04L 19.150000000000006-25.54L 26.500000000000007-25.54Q 34.56-25.54  34.56-17.47L 34.56-17.47L 34.56 0ZM 20.980000000000004-8.98L 20.980000000000004-7.58Q 20.980000000000004-6.96  21.600000000000005-6.96L 21.600000000000005-6.96L 26.540000000000006-6.96L 26.540000000000006-9.6L 21.600000000000005-9.6Q 20.980000000000004-9.6  20.980000000000004-8.98L 20.980000000000004-8.98ZM 48.912000000000006 0L 40.892 0L 40.892-25.54L 55.202000000000005-25.54Q 63.262-25.54  63.262-17.47L 63.262-17.47L 63.262 0L 55.25200000000001 0L 55.25200000000001-17.95Q 55.25200000000001-18.58  54.622-18.58L 54.622-18.58L 48.912000000000006-18.58L 48.912000000000006 0Z"></path><path text-anchor="middle" offset="0.5" fill="rgba(255, 107, 29, 1)" space="preserve" font-scale="contain" font-size="48" font-family="Oxanium" text="gardener" font-style="normal" font-weight="800" data-fl-textpath="" transform="matrix(1.5636332035064697, 0, 0, 1.5636332035064697, 254.95236206054688, 356.1564636230469)" d="M-101.57000000000001-8.06L-101.57000000000001-8.06L-101.57000000000001-17.47Q-101.57000000000001-25.54 -93.50000000000001-25.54L-93.50000000000001-25.54L-79.20000000000002-25.54L-79.20000000000002 1.54Q-79.20000000000002 9.6 -87.26000000000002 9.6L-87.26000000000002 9.6L-95.9 9.6L-99.26 7.1L-99.26 2.64L-87.84 2.64Q-87.22000000000001 2.64 -87.22000000000001 2.02L-87.22000000000001 2.02L-87.22000000000001 0L-93.50000000000001 0Q-101.57000000000001 0 -101.57000000000001-8.06ZM-93.55000000000001-17.95L-93.55000000000001-7.58Q-93.55000000000001-6.96 -92.93-6.96L-92.93-6.96L-87.22000000000001-6.96L-87.22000000000001-18.58L-92.93-18.58Q-93.55000000000001-18.58 -93.55000000000001-17.95L-93.55000000000001-17.95ZM-52.70400000000002 0L-66.24400000000001 0Q-74.30400000000002 0 -74.30400000000002-7.82Q-74.30400000000002-15.65 -66.24400000000001-15.65L-66.24400000000001-15.65L-60.72400000000002-15.65L-60.72400000000002-17.95Q-60.72400000000002-18.58 -61.344000000000015-18.58L-61.344000000000015-18.58L-71.47400000000002-18.58L-71.47400000000002-23.04L-68.11400000000002-25.54L-60.76400000000002-25.54Q-52.70400000000002-25.54 -52.70400000000002-17.47L-52.70400000000002-17.47L-52.70400000000002 0ZM-66.28400000000002-8.98L-66.28400000000002-7.58Q-66.28400000000002-6.96 -65.66400000000002-6.96L-65.66400000000002-6.96L-60.72400000000002-6.96L-60.72400000000002-9.6L-65.66400000000002-9.6Q-66.28400000000002-9.6 -66.28400000000002-8.98L-66.28400000000002-8.98ZM-38.542000000000016 0L-46.56200000000002 0L-46.56200000000002-22.08Q-44.73200000000002-25.54 -39.45200000000002-25.54L-39.45200000000002-25.54L-34.08200000000002-25.54L-30.72200000000002-23.04L-30.72200000000002-18.58L-37.05200000000002-18.58Q-38.21200000000002-18.58 -38.542000000000016-18.05L-38.542000000000016-18.05L-38.542000000000016 0ZM-26.59200000000002-8.06L-26.59200000000002-8.06L-26.59200000000002-17.47Q-26.59200000000002-25.54 -18.532000000000018-25.54L-18.532000000000018-25.54L-12.242000000000019-25.54L-12.242000000000019-35.52L-4.222000000000019-35.52L-4.222000000000019 0L-18.532000000000018 0Q-26.59200000000002 0 -26.59200000000002-8.06ZM-18.572000000000017-17.95L-18.572000000000017-7.58Q-18.572000000000017-6.96 -17.95200000000002-6.96L-17.95200000000002-6.96L-12.242000000000019-6.96L-12.242000000000019-18.58L-17.95200000000002-18.58Q-18.572000000000017-18.58 -18.572000000000017-17.95L-18.572000000000017-17.95ZM 1.9199999999999813-8.06L 1.9199999999999813-8.06L 1.9199999999999813-17.47Q 1.9199999999999813-25.54  9.97999999999998-25.54L 9.97999999999998-25.54L 16.21999999999998-25.54Q 24.28999999999998-25.54  24.28999999999998-17.47L 24.28999999999998-17.47L 24.28999999999998-9.84L 9.939999999999982-9.84L 9.939999999999982-7.58Q 9.939999999999982-6.96  10.559999999999981-6.96L 10.559999999999981-6.96L 23.32999999999998-6.96L 23.32999999999998-2.5L 19.96999999999998 0L 9.97999999999998 0Q 1.9199999999999813 0  1.9199999999999813-8.06ZM 9.939999999999982-17.95L 9.939999999999982-15.89L 16.269999999999982-15.89L 16.269999999999982-17.95Q 16.269999999999982-18.58  15.64999999999998-18.58L 15.64999999999998-18.58L 10.559999999999981-18.58Q 9.939999999999982-18.58  9.939999999999982-17.95L 9.939999999999982-17.95ZM 38.44799999999998 0L 30.427999999999983 0L 30.427999999999983-25.54L 44.737999999999985-25.54Q 52.79799999999998-25.54  52.79799999999998-17.47L 52.79799999999998-17.47L 52.79799999999998 0L 44.78799999999998 0L 44.78799999999998-17.95Q 44.78799999999998-18.58  44.15799999999998-18.58L 44.15799999999998-18.58L 38.44799999999998-18.58L 38.44799999999998 0ZM 58.75199999999998-8.06L 58.75199999999998-8.06L 58.75199999999998-17.47Q 58.75199999999998-25.54  66.81199999999998-25.54L 66.81199999999998-25.54L 73.05199999999998-25.54Q 81.12199999999999-25.54  81.12199999999999-17.47L 81.12199999999999-17.47L 81.12199999999999-9.84L 66.77199999999998-9.84L 66.77199999999998-7.58Q 66.77199999999998-6.96  67.39199999999998-6.96L 67.39199999999998-6.96L 80.16199999999998-6.96L 80.16199999999998-2.5L 76.80199999999998 0L 66.81199999999998 0Q 58.75199999999998 0  58.75199999999998-8.06ZM 66.77199999999998-17.95L 66.77199999999998-15.89L 73.10199999999998-15.89L 73.10199999999998-17.95Q 73.10199999999998-18.58  72.48199999999997-18.58L 72.48199999999997-18.58L 67.39199999999998-18.58Q 66.77199999999998-18.58  66.77199999999998-17.95L 66.77199999999998-17.95ZM 95.08999999999999 0L 87.06999999999998 0L 87.06999999999998-22.08Q 88.89999999999999-25.54  94.17999999999998-25.54L 94.17999999999998-25.54L 99.54999999999998-25.54L 102.90999999999998-23.04L 102.90999999999998-18.58L 96.57999999999998-18.58Q 95.41999999999999-18.58  95.08999999999999-18.05L 95.08999999999999-18.05L 95.08999999999999 0Z"></path></svg></svg>