<svg xmlns="http://www.w3.org/2000/svg" version="1.1" xmlns:xlink="http://www.w3.org/1999/xlink" xmlns:svgjs="http://svgjs.dev/svgjs" width="128" height="128" viewBox="0 0 128 128"><g transform="matrix(0.4835680751173709,0,0,0.4835680751173709,33.300136235250214,12.760752631578946)"><svg viewBox="0 0 57 95" data-background-color="#ffffff" preserveAspectRatio="xMidYMid meet" height="213" width="128" xmlns="http://www.w3.org/2000/svg" xmlns:xlink="http://www.w3.org/1999/xlink"><g id="tight-bounds" transform="matrix(1,0,0,1,-0.22883449879951456,-0.24049999999999727)"><svg viewBox="0 0 57.45766899759903 95.481" height="95.481" width="57.45766899759903"><g><svg viewBox="0 0 57.45766899759903 95.481" height="95.481" width="57.45766899759903"><g><svg viewBox="0 0 57.45766899759903 95.481" height="95.481" width="57.45766899759903"><g id="textblocktransform"><svg viewBox="0 0 57.45766899759903 95.481" height="95.481" width="57.45766899759903" id="textblock"><g><svg viewBox="0 0 57.45766899759903 95.481" height="95.481" width="57.45766899759903"><g><svg viewBox="0 0 57.45766899759903 95.481" height="95.481" width="57.45766899759903"><g><svg xmlns="http://www.w3.org/2000/svg" xmlns:xlink="http://www.w3.org/1999/xlink" version="1.1" x="0" y="0" viewBox="19.660000000000007 0.026 60.153000000000006 99.96000000000002" enable-background="new 0 0 100 100" xml:space="preserve" height="95.481" width="57.45766899759903" class="icon-icon-0" data-fill-palette-color="accent" id="icon-0"><g fill="#2ecc40" data-fill-palette-color="accent"><path d="M79.808 42.533c0-0.992-0.812-1.803-1.804-1.803L52.3 40.704l-0.979 0.005c-0.914-4.928-0.914-14.727 1.429-18.24C64.499 19.509 65.64 8.348 65.64 8.348c-9.322-0.665-12.751 2.529-14.839 8.322C49.737 1.391 34.815 0.026 34.815 0.026 31.42 11.811 37.212 19.267 46.389 22.5c0 0 0.783 0.191 1.823 0.325-0.745 2.154-1.188 4.829-1.37 7.606-2.588-3.229-8.004-3.648-9.857-2.221 0 0 1.818 6.953 9.762 5.869 0.027 2.374 0.228 4.678 0.57 6.65l-1.561 0.009-24.291 0.005c-0.992 0.001-1.805 0.813-1.805 1.806l0.004 11.201c0 0.992 0.812 1.804 1.805 1.804l56.54-0.017c0.992 0 1.804-0.812 1.804-1.804L79.808 42.533z" fill="#2ecc40" data-fill-palette-color="accent"></path><path d="M72.778 60.233l-46.08 0.015c-0.992 0-1.649 0.796-1.456 1.77l7.082 36.192c0.19 0.975 1.157 1.772 2.149 1.772l31.472 0.004c0.993-0.001 1.942-0.8 2.111-1.778l6.22-36.195C74.445 61.034 73.771 60.233 72.778 60.233z" fill="#2ecc40" data-fill-palette-color="accent"></path></g></svg></g></svg></g></svg></g></svg></g></svg></g><g></g></svg></g><defs></defs></svg><rect width="57.45766899759903" height="95.481" fill="none" stroke="none" visibility="hidden"></rect></g></svg></g></svg>
